<svg xmlns="http://www.w3.org/2000/svg" width="259" height="85" viewBox="0 0 259 85">
    <g fill="none" fill-rule="evenodd">
        <path fill="#181617" d="M64.465 26.279l-6.577 6.27c-4.475-4.73-9.509-7.094-15.101-7.094-4.72 0-8.698 1.614-11.93 4.842-3.232 3.228-4.85 7.206-4.85 11.936 0 3.294.716 6.22 2.148 8.775 1.431 2.556 3.457 4.56 6.074 6.017 2.618 1.457 5.526 2.185 8.727 2.185 2.728 0 5.222-.508 7.482-1.528s4.742-2.876 7.45-5.565l6.376 6.653c-3.65 3.562-7.099 6.033-10.345 7.41-3.247 1.377-6.952 2.066-11.117 2.066-7.68 0-13.967-2.435-18.86-7.305-4.892-4.871-7.338-11.112-7.338-18.725 0-4.927 1.112-9.304 3.341-13.134 2.228-3.828 5.42-6.907 9.572-9.236 4.154-2.328 8.626-3.493 13.419-3.493 4.075 0 7.999.86 11.771 2.582 3.774 1.721 7.026 4.17 9.758 7.344"/>
        <path fill="#181617" d="M40.286 36.565v12.766h1.787c1.762 0 3.038-.201 3.83-.605.794-.405 1.443-1.084 1.948-2.039.504-.955.757-2.13.757-3.525 0-2.147-.601-3.815-1.802-5-1.083-1.063-2.82-1.597-5.214-1.597h-1.306zm-3.825-3.714h4.563c2.942 0 5.127.365 6.555 1.094 1.43.73 2.608 1.915 3.533 3.555.926 1.642 1.39 3.56 1.39 5.751 0 1.56-.261 2.992-.778 4.298-.518 1.308-1.232 2.392-2.143 3.254-.913.862-1.901 1.458-2.962 1.788-1.064.331-2.906.496-5.525.496H36.46V32.85z"/>
        <path fill="#E1342D" d="M42.18 8.934c-18.332 0-33.246 14.914-33.246 33.246 0 18.331 14.914 33.245 33.246 33.245S75.426 60.511 75.426 42.18c0-18.332-14.914-33.246-33.246-33.246m0 67.274c-18.764 0-34.03-15.265-34.03-34.028 0-18.763 15.266-34.029 34.03-34.029 18.763 0 34.028 15.266 34.028 34.03 0 18.762-15.265 34.027-34.028 34.027"/>
        <path fill="#F5E644" d="M42.18 4.732c-20.648 0-37.447 16.8-37.447 37.447 0 20.65 16.799 37.449 37.447 37.449 20.648 0 37.447-16.8 37.447-37.449 0-20.648-16.799-37.447-37.447-37.447m0 75.678c-21.08 0-38.231-17.15-38.231-38.23S21.1 3.95 42.18 3.95c21.08 0 38.23 17.15 38.23 38.23S63.26 80.41 42.18 80.41"/>
        <path fill="#181617" d="M42.18.783C19.353.783.783 19.353.783 42.18c0 22.826 18.57 41.396 41.397 41.396 22.826 0 41.397-18.57 41.397-41.396C83.577 19.353 65.006.783 42.18.783m0 83.577C18.922 84.36 0 65.438 0 42.18S18.922 0 42.18 0s42.179 18.922 42.179 42.18S65.438 84.36 42.18 84.36"/>
        <g fill="#231F20">
            <path d="M109.8 38.407l-1.897 1.882c-1.29-1.42-2.742-2.13-4.354-2.13-1.36 0-2.506.486-3.44 1.455-.93.966-1.397 2.161-1.397 3.58 0 .988.205 1.867.618 2.634a4.518 4.518 0 0 0 1.752 1.805c.754.437 1.594.655 2.516.655.786 0 1.505-.152 2.158-.458.65-.307 1.367-.863 2.147-1.669l1.838 1.996c-1.052 1.069-2.046 1.81-2.982 2.225-.938.413-2.004.62-3.206.62-2.214 0-4.027-.732-5.436-2.194C96.705 47.346 96 45.474 96 43.188c0-1.479.32-2.792.964-3.939.642-1.15 1.56-2.074 2.76-2.773a7.54 7.54 0 0 1 3.869-1.05c1.174 0 2.305.26 3.393.775a8.149 8.149 0 0 1 2.814 2.206M118.025 39.713l-1.95 4.806h3.888l-1.938-4.806zM116.606 36h2.804L125 50h-2.873l-1.138-2.883h-5.933L113.876 50H111l5.606-14zM128.5 36h2.677l3.347 9.767 3.38-9.767h2.674L143 50h-2.658l-1.547-8.84-3.068 8.84h-2.421l-3.042-8.84L128.68 50H126zM148.861 38.57v8.834h1.337c1.316 0 2.273-.14 2.866-.422.595-.277 1.078-.747 1.455-1.408.38-.66.568-1.474.568-2.44 0-1.486-.449-2.64-1.349-3.458-.808-.736-2.11-1.105-3.9-1.105h-.977zM146 36h3.414c2.2 0 3.836.252 4.904.757 1.069.504 1.949 1.325 2.643 2.46.692 1.135 1.039 2.461 1.039 3.98 0 1.077-.196 2.068-.583 2.973-.386.904-.922 1.654-1.604 2.25-.682.599-1.42 1.009-2.214 1.238-.796.23-2.174.342-4.133.342H146V36zM166.96 38.19c-1.372 0-2.525.476-3.46 1.43s-1.404 2.169-1.404 3.638c0 1.642.59 2.939 1.768 3.893a4.834 4.834 0 0 0 3.147 1.117c1.338 0 2.477-.483 3.42-1.45.942-.969 1.413-2.161 1.413-3.577 0-1.411-.476-2.608-1.423-3.585-.95-.978-2.1-1.466-3.46-1.466m.028-2.762c2.099 0 3.903.758 5.411 2.278 1.508 1.518 2.266 3.369 2.266 5.552 0 2.166-.745 3.995-2.234 5.496-1.489 1.498-3.296 2.246-5.42 2.246-2.228 0-4.076-.77-5.55-2.307-1.472-1.54-2.208-3.368-2.208-5.484 0-1.418.343-2.722 1.028-3.91a7.628 7.628 0 0 1 2.831-2.829 7.606 7.606 0 0 1 3.876-1.042M189.954 38.407l-1.974 1.882c-1.343-1.42-2.852-2.13-4.532-2.13-1.418 0-2.608.486-3.58 1.455-.969.966-1.455 2.161-1.455 3.58 0 .988.217 1.867.644 2.634a4.607 4.607 0 0 0 1.824 1.805c.784.437 1.656.655 2.618.655.818 0 1.566-.152 2.246-.458.678-.307 1.423-.863 2.235-1.669l1.916 1.996c-1.098 1.069-2.13 1.81-3.109 2.225-.971.413-2.084.62-3.334.62-2.305 0-4.192-.732-5.659-2.194-1.47-1.462-2.203-3.334-2.203-5.62 0-1.479.336-2.792 1.003-3.939.668-1.15 1.628-2.074 2.873-2.773a8.08 8.08 0 0 1 4.027-1.05c1.222 0 2.4.26 3.531.775a8.441 8.441 0 0 1 2.929 2.206M200.478 37.816l-2.153 1.846c-.757-1.023-1.525-1.533-2.307-1.533-.383 0-.695.1-.935.297-.245.199-.368.422-.368.67 0 .25.088.486.263.707.237.293.945.93 2.13 1.906 1.11.899 1.782 1.467 2.017 1.702.588.578 1.005 1.13 1.252 1.657.248.53.368 1.105.368 1.729 0 1.217-.433 2.222-1.297 3.014-.866.794-1.993 1.19-3.388 1.19-1.085 0-2.032-.26-2.838-.777-.81-.518-1.5-1.329-2.075-2.439l2.443-1.43c.735 1.309 1.58 1.965 2.537 1.965.498 0 .918-.141 1.255-.425.34-.282.513-.608.513-.977 0-.335-.133-.672-.385-1.008-.26-.335-.823-.85-1.695-1.542-1.665-1.316-2.74-2.334-3.222-3.05-.485-.714-.728-1.428-.728-2.14 0-1.03.403-1.91 1.21-2.647.805-.736 1.803-1.102 2.985-1.102.763 0 1.487.17 2.177.515.688.34 1.436.966 2.24 1.872M211.736 44.434v3.842h.686c1.135 0 1.905-.148 2.3-.447.396-.3.594-.735.594-1.305 0-.646-.236-1.157-.697-1.528-.467-.376-1.237-.562-2.315-.562h-.568zm0-5.71v3.16h.598c.667 0 1.164-.145 1.486-.438.325-.292.488-.69.488-1.194 0-.469-.156-.84-.462-1.115-.306-.275-.777-.413-1.403-.413h-.707zM209 51V36h2.26c1.31 0 2.27.09 2.878.268.86.236 1.545.678 2.056 1.324.506.646.763 1.408.763 2.285 0 .57-.118 1.088-.351 1.555-.228.464-.605.901-1.126 1.309.874.427 1.51.963 1.915 1.607.402.64.605 1.4.605 2.28 0 .84-.207 1.608-.624 2.301-.42.693-.958 1.214-1.615 1.555-.657.344-1.569.516-2.73.516H209zM219 36h2.83l3.645 9.946L229.171 36H232l-5.216 14h-2.656zM236.736 44.434v3.842h.686c1.135 0 1.905-.148 2.298-.447.395-.3.593-.735.593-1.305 0-.646-.233-1.157-.697-1.528-.466-.376-1.234-.562-2.315-.562h-.565zm0-5.71v3.16h.598c.667 0 1.164-.145 1.486-.438.323-.292.488-.69.488-1.194 0-.469-.158-.84-.464-1.115-.306-.275-.775-.413-1.404-.413h-.704zM234 51V36h2.258c1.312 0 2.273.09 2.88.268.86.236 1.545.678 2.054 1.324.506.646.762 1.408.762 2.285 0 .57-.117 1.088-.348 1.555-.228.464-.605.901-1.126 1.309.872.427 1.507.963 1.912 1.607.405.64.608 1.4.608 2.28 0 .84-.21 1.608-.624 2.301-.42.693-.958 1.214-1.615 1.555-.66.344-1.571.516-2.732.516H234zM251.88 39.732l-1.987 5.09h3.963l-1.976-5.09zm-1.448-3.931h2.861l5.705 14.826h-2.934l-1.16-3.053h-6.05l-1.205 3.053h-2.934l5.717-14.826z"/>
        </g>
    </g>
</svg>
